<?xml version="1.0" encoding="utf-8"?>
<!-- Generator: Adobe Illustrator 16.0.0, SVG Export Plug-In . SVG Version: 6.00 Build 0)  -->
<!DOCTYPE svg PUBLIC "-//W3C//DTD SVG 1.1//EN" "http://www.w3.org/Graphics/SVG/1.1/DTD/svg11.dtd">
<svg version="1.1" id="Layer_1" xmlns="http://www.w3.org/2000/svg" xmlns:xlink="http://www.w3.org/1999/xlink" x="0px" y="0px"
	 width="500px" height="500px" viewBox="0 0 500 500" enable-background="new 0 0 500 500" xml:space="preserve">
<path fill-rule="evenodd" clip-rule="evenodd" fill="#A7A9AC" d="M276.501,239.886c0.725-0.273,1.615-0.603,2.273-0.367
	c4.726,1.689,9.527,3.213,14.065,5.412c2.925,1.423,5.543,3.752,8.123,5.935c4.123,3.479,8.157,7.094,12.126,10.789
	c6.588,6.129,12.381,13.136,16.907,21.293c2.594,4.656,4.602,9.73,6.747,14.681c0.32,0.749,0.213,2.049-0.16,2.789
	c-0.642,1.251-1.313,2.473-2.029,3.68c0.016,0.097,0.032,0.192,0.048,0.288c1.326-2.232,2.456-4.614,3.217-7.33
	c1.396-4.988,3.956-9.559,5.435-14.532c1.159-3.908,1.71-8.113,2.095-12.239c0.537-5.834,0.333-11.662-0.774-17.471
	c-1.255-6.617-3.215-12.898-7.216-18.008c-3.481-4.441-8.215-6.532-13.354-7.919c-5.807-1.566-11.343-0.208-16.762,1.416
	c-11.495,3.442-19.792,7.189-31.084,11.234c0.057,0.138,0.104,0.279,0.144,0.423C276.367,239.936,276.438,239.915,276.501,239.886z"
	/>
<path fill-rule="evenodd" clip-rule="evenodd" fill="#A7A9AC" d="M499.081,284.794c-0.225-3.247-1.686-6.382-1.908-9.623
	c-0.421-6.23-0.024-12.505-2.12-18.55c-1.228-3.542-1.323-7.653-2.809-11.006c-1.415-3.178-1.94-6.29-1.993-9.652
	c-0.049-3.507-1.239-6.39-3.206-9.135c-1.317-1.853-2.688-4.195-2.888-6.438c-0.53-6.151-2.4-11.405-5.958-16.105
	c-2.133-2.803-3.74-6.101-5.738-9.054c-2.092-3.105-1.831-7.697-5.204-10.012c-0.551-0.38-0.538-1.795-0.762-2.737
	c-0.468-1.905-0.563-4.075-1.465-5.678c-1.186-2.083-3.005-3.694-4.535-5.541c-2.841-3.435-5.625-6.935-8.512-10.334
	c-4.086-4.8-8.066-9.723-12.395-14.222c-3.315-3.453-8.395-8.426-15.978-15.436c-3.677-3.394-7.773-6.225-11.32-9.76
	c-5.166-5.167-11.293-8.451-17.26-12.087c-3.284-2.006-6.689-3.838-10.174-5.362c-5.132-2.257-10.261-5.11-15.617-5.979
	c-6.483-1.042-12.345-3.931-18.51-5.825c-3.247,8.426-6.313,17.534-9.372,25.444c-0.325-0.138-0.647-0.281-0.97-0.422
	c1.264,0.62,2.521,1.253,3.773,1.895c1.788,0.92,2.951,3.242,4.604,4.607c3.668,3.04,7.629,5.649,11.177,8.847
	c3.879,3.506,7.315,7.646,11.159,11.218c3.334,3.096,6.978,5.784,10.467,8.681c1.072,0.898,2.124,1.854,3.111,2.889
	c0.69,0.733,1.254,1.64,1.875,2.473c3.449,4.648,7.023,9.19,10.294,13.999c3.104,4.549,5.878,9.386,8.803,14.093
	c0.19,0.31,0.44,0.804,0.673,0.819c3.308,0.137,4.134,3.17,5.446,5.691c0.615,1.187,1.364,2.357,2.274,3.25
	c4.185,4.11,6.312,9.4,7.72,15.321c0.891,3.751,2.631,7.236,3.701,10.953c1.145,3.979,2.004,8.069,2.893,12.145
	c0.762,3.492,1.401,7.028,2.062,10.555c0.237,1.231,0.558,2.48,0.564,3.73c0.062,6.125-0.054,12.253,0.069,18.39
	c0.052,2.417,0.717,4.831,0.775,7.259c0.057,2.582-0.289,5.168-0.43,7.747c-0.166,3.142-0.289,6.286-0.469,9.43
	c-0.049,0.77-0.043,1.774-0.447,2.271c-2.681,3.299-2.547,7.331-2.034,11.198c0.799,6.077-1.532,11.009-3.753,16.116
	c-1.119,2.553-1.882,5.281-2.938,8.359c-2.438-2.573-3.873-4.442-3.583-7.863c0.314-3.651-0.546-7.273-3.406-9.794
	c-0.456-0.402-0.858-1.057-1.007-1.682c-1.035-4.442-1.854-8.963-3.04-13.354c-0.697-2.594-1.889-5.023-2.945-7.479
	c-1.293-2.998-2.618-5.981-4.021-8.906c-0.997-2.076-2.099-4.08-3.244-6.052c-2.248-3.857-4.379-7.824-6.903-11.44
	c-1.784-2.565-4.024-4.792-6.254-6.904c-0.531-0.504-0.974-1.043-1.372-1.602c0.087,0.907,0.18,1.813,0.296,2.713
	c1.371,10.639-0.32,21.159-1.182,31.657c-0.476,5.722-2.409,11.298-3.791,16.91c-0.635,2.573-1.396,5.14-2.344,7.595
	c-2.505,6.454-4.865,13.003-7.771,19.21c-3.137,6.72-6.511,13.345-10.364,19.564c-3.188,5.137-7.018,9.823-10.927,14.292
	c-5.904,6.756-12.087,13.208-18.221,19.732c-3.228,3.422-6.442,6.871-9.955,9.892c-4.673,3.995-9.582,7.646-14.482,11.297
	c-4.608,3.433-9.217,6.897-14.019,9.987c-5.333,3.435-10.889,6.396-16.331,9.615c-2.183,1.267-4.303,2.703-6.518,3.94
	c-1.567,0.858-3.291,1.351-4.892,2.152c-1.759,0.894-3.411,2.042-5.198,2.818c-3.424,1.553-7.067,2.545-10.332,4.428
	c-3.131,1.783-6.773,1.983-9.636,3.651c-4.428,2.544-9.32,2.786-13.738,4.974c-1.222,0.588-2.707,0.499-4.071,0.716
	c-1.043,0.158-2.381-0.113-3.067,0.519c-2.394,2.17-5.261,1.222-7.842,1.94c-2.689,0.763-5.5,0.43-8.015,1.05
	c-2.759,0.633-5.428,0.721-8.156,0.89c-0.512,0.031-1.312,0.058-1.459,0.374c-0.046,0.102-0.096,0.187-0.145,0.279
	c2.584-0.214,5.173-0.363,7.763-0.423c6.582-0.199,13.194,0.174,19.744-0.399c5.921-0.479,11.799-1.771,17.663-2.906
	c3.45-0.675,6.817-1.811,10.235-2.673c4.862-1.208,9.763-1.84,14.263-4.828c4.874-3.25,10.214-5.635,15.43-8.209
	c0.928-0.43,2.79-0.287,3.277,0.418c0.736,1.063,1.21,3.106,0.806,4.282c-1.01,3.049-2.31,6.039-3.975,8.654
	c-3.354,5.302-6.934,10.461-11.209,14.889c-2.294,2.416-4.403,5.104-6.954,7.115c-2.495,1.94-5.37,3.349-8.212,4.644
	c-2.387,1.104-4.917,1.953-7.465,2.485c-2.401,0.531-4.904,0.417-7.342,0.675c-4.968,0.577-9.93,1.237-14.891,1.811
	c-2.542,0.261-4.092,2.016-4.737,4.456c-0.706,2.688,1.741,2.357,2.971,3.164c0.3,0.201,0.549,0.531,0.864,0.674
	c3.29,1.6,6.477,3.739,9.917,4.584c4.685,1.181,9.557,1.626,14.365,1.9c4.712,0.258,9.488,0.299,14.174-0.232
	c7.04-0.805,14-2.659,21.049-3.189c7.088-0.532,13.86-2.399,20.427-4.931c5.336-2.027,10.455-5.073,15.315-8.322
	c5.382-3.593,10.384-7.905,15.496-11.973c1.973-1.565,3.792-3.349,5.7-5.031c3.227-2.831,7.021-4.985,8.608-9.701
	c0.245-0.747,1.025-1.293,1.64-1.81c1.773-1.453,3.739-2.674,5.351-4.312c1.463-1.495,2.64-3.35,3.805-5.176
	c0.901-1.394,1.421-3.131,2.433-4.397c1.863-2.344,4.321-4.195,5.863-6.755c2.299-3.781,3.977-8.05,5.992-12.073
	c1.288-2.561,2.901-4.916,4.061-7.56c2.086-4.774,4.128-9.544,5.83-14.458c2.216-6.442,4.527-12.909,5.936-19.607
	c0.985-4.712,0.447-9.845,0.724-14.754c0.396-6.878-0.82-13.538-1.722-20.257c-0.512-3.859-0.48-7.827-0.289-11.722
	c0.045-0.971,1.542-2.442,2.535-2.645c4.917-0.935,9.174,0.846,9.577,8.025c0.053,0.886,0.331,1.762,0.476,2.609
	c0.921,5.621,2.021,11.204,2.699,16.846c0.794,6.604,1.314,13.266,1.774,19.942c0.391,5.592,0.741,11.21,0.704,16.847
	c-0.032,4.626-0.68,9.24-1.056,13.854c-0.276,3.419-0.271,6.899-0.929,10.203c-0.904,4.485-2.151,8.912-3.555,13.225
	c-1.624,5.014-3.295,10.061-5.467,14.803c-1.445,3.133-3.757,5.809-5.717,8.64c-2.527,3.68-5.069,7.329-7.669,10.909
	c-0.82,1.15-2.055,1.928-2.777,3.133c-2.92,4.799-6.703,8.681-10.788,12.045c-3.61,2.989-6.739,6.18-8.393,10.895
	c-0.94,2.729-1.825,5.506-2.337,8.337c-0.179,0.934,0.659,2.642,1.459,3.162c1.05,0.702,2.573,0.903,3.817,0.716
	c4.326-0.66,8.436-1.534,11.766-5.561c2.74-3.292,6.536-5.478,9.68-8.424c4.281-4.04,8.509-8.175,12.556-12.533
	c5.036-5.389,9.991-10.907,14.76-16.642c3.176-3.81,6.14-7.863,8.874-12.09c2.79-4.31,5.327-8.852,7.74-13.466
	c4.508-8.582,9.064-17.175,13.175-25.985c2.266-4.847,3.643-10.219,5.468-15.338c1.9-5.305,4.25-10.434,4.635-16.326
	c0.075-1.207,0.531-2.646,1.248-3.479c2.234-2.702,2.895-6.022,3.258-9.399c0.563-5.26,0.512-10.63,1.371-15.816
	c1.363-8.193,4.128-16.128,2.917-24.694c-0.063-0.475,0.091-0.983,0.091-1.479c0.153-11.061,0.884-22.163,0.262-33.173
	c-0.652-11.397-2.087-22.81-5.3-33.792c-0.493-1.674-0.966-3.413-1.127-5.151c-0.121-1.273,0.282-2.618,0.454-3.925
	c0.294-0.014,0.589-0.029,0.885-0.049c0.46,1.013,0.846,2.083,1.388,3.032c2.735,4.743,2.478,10.65,5.128,15.565
	c1.831,3.394,2.198,7.783,3.277,11.7c0.47,1.69,0.705,4.276,1.723,4.801c3.066,1.566,2.613,4.664,2.979,7.194
	c1.24,8.509,2.149,17.08,3.218,25.625c0.076,0.553,0.551,1.029,0.685,1.583c0.796,3.283,2.178,6.575,2.178,9.866
	c0.006,6.842-0.763,13.684-1.133,20.503c-0.047,0.849,0.359,1.71,0.518,2.573c0.218,1.055,0.532,2.098,0.563,3.162
	c0.231,5.979,0.652,11.959,0.479,17.915c-0.146,4.88,1.09,10.17-2.233,14.496c-0.243,0.303-0.198,0.964-0.211,1.437
	c-0.058,2.631,0.114,5.318-0.186,7.95c-0.403,3.591-0.832,7.271-1.855,10.69c-1.334,4.429-3.35,8.581-4.875,12.95
	c-0.657,1.913-1.035,4.012-1.145,6.024c-0.141,2.472-0.344,5.146,0.353,7.387c0.991,3.221,3.238,3.361,5.103,0.689
	c0.735-1.063,1.089-2.443,1.746-3.622c0.738-1.293,1.415-3.219,2.485-3.621c3.246-1.121,3.698-3.766,4.186-6.955
	c0.392-2.501,1.057-5.751,2.658-7.102c3.59-3.018,3.708-6.755,3.63-11.011c-0.04-2.097,0.006-4.597,0.947-6.253
	c2.881-5.1,4.692-10.619,6.239-16.312c0.258-0.908-0.331-2.847-1.017-3.263c-1.799-1.007-0.825-1.797-0.3-2.926
	c0.992-2.133,2.15-4.312,2.638-6.626c0.606-2.875,0.621-5.943,0.934-9.499c0.416,1.041,0.583,1.436,0.745,1.83
	c0.522-2.355,1.873-4.957,1.336-6.898c-0.64-2.313,0.229-3.715,0.705-5.476c0.192-0.733,0.402-1.51,0.435-2.301
	c0.366-11.475-0.609-22.944,2.222-34.407C500.737,297.592,499.509,290.976,499.081,284.794z"/>
<path fill-rule="evenodd" clip-rule="evenodd" fill="#A7A9AC" d="M335.759,89.085c-0.229-0.033-0.457-0.056-0.686-0.085
	c0.296,0.04,0.593,0.078,0.889,0.117C335.895,89.107,335.826,89.095,335.759,89.085z"/>
<path fill-rule="evenodd" clip-rule="evenodd" fill="#A7A9AC" d="M111.341,393.835c2.036-2.215,4.539-3.909,6.486-6.208
	c5.524-6.556,14.038-15.036,19.455-21.678c0.364-0.431,0.788-0.804,1.171-1.176c0.183,0.126,0.362,0.251,0.544,0.377
	c-2.84-5.094-7.356-8.146-11.652-11.554c-1.97-1.544-3.334-4.061-5.153-5.906c-3.533-3.608-7.1-7.202-10.825-10.556
	c-3.169-2.84-6.209-5.607-8.002-9.954c-0.877-2.101-2.573-4.263-4.398-5.313c-3.552-2.055-5.287-5.611-7.239-9.063
	c-2.996-5.316-5.877-10.721-8.804-16.087c-0.229-0.42-0.505-0.893-0.538-1.353c-0.384-6.391-4.264-11.054-6.446-16.544
	c-0.621-1.559-0.883-3.306-1.178-4.988c-0.704-4.047-1.094-8.178-2.088-12.123c-0.595-2.393-2.938-4.108-2.355-7.143
	c0.064-0.317-0.934-0.906-1.446-1.36c-0.71-0.617-2.125-1.544-2.036-1.787c0.506-1.388,1.153-2.953,2.184-3.752
	c0.685-0.517,2.586-0.302,3.099,0.387c2.08,2.76,4.071,5.679,5.613,8.82c1.307,2.65,2.709,4.785,5.059,6.523
	c2.419,1.782,4.257,4.557,6.369,6.871c2.189,2.392,4.526,4.642,6.568,7.185c2.868,3.567,6.966,4.405,10.492,6.52
	c3.873,2.307,7.925,2.451,12.145,2.615c1.985,0.074,3.905,1.79,5.883,2.673c1.172,0.525,2.421,1.287,3.611,1.244
	c3.989-0.135,7.337,0.956,10.314,4.228c1.087,1.199,3.334,1.234,5.088,1.479c2.235,0.323,4.507,0.346,6.761,0.445
	c1.824,0.086,3.648,0.166,5.466,0.092c2.343-0.092,4.68-0.286,7.011-0.551c3.917-0.454,7.95-0.483,11.715-1.617
	c7.624-2.302,15.057-5.399,22.662-7.82c5.537-1.767,10.602-4.52,15.517-7.755c3.983-2.631,8.042-5.116,12.075-7.653
	c4.251-2.679,5.057-8.395,1.606-12.151c0.658-0.236,1.313-0.468,1.972-0.704c-0.523-0.068-1.047-0.149-1.568-0.241
	c-7.844,2.995-15.911,4.797-24.032,6.463c-7.113,1.467-14.264,2.531-21.434,1.813c-4.489-0.445-8.802-1.627-12.675-4.178
	c-0.365,0.218-0.771,0.353-1.205,0.348c-1.178-0.008-2.452-0.288-3.34-1.206c-1.57-0.145-3.279-0.183-4.803-0.793
	c-4.903-1.996-8.835-5.647-11.805-10.406c-3.125-4.986-5.959-10.189-8.968-15.25c-0.36-0.588-1.05-1.213-1.646-1.292
	c-2.675-0.345-3.444-2.566-4.378-4.887c-0.673-1.682-1.908-3.076-2.771-4.687c-1.006-1.883-2.35-3.75-2.735-5.813
	c-0.787-4.227-1.151-8.567-1.466-12.886c-0.525-7.072-1.568-14.215-1.12-21.228c0.627-9.702-0.109-19.778,4.769-28.761
	c2.286-4.211,3.291-9.285,5.538-13.525c3.066-5.806,6.971-11.052,10.121-16.809c2.037-3.708,4.167-6.884,7.547-9.334
	c4.648-3.378,8.637-7.899,13.278-11.29c6.685-4.879,13.738-9.113,20.563-13.755c3.227-2.199,6.107-5.116,9.463-6.978
	c4.109-2.293,8.545-3.873,12.86-5.677c6.997-2.932,13.994-5.835,21.017-8.66c1.972-0.806,4.021-1.653,6.075-1.883
	c10.468-1.135,20.946-2.077,31.421-3.089c2.016-0.195,4.072-0.748,6.03-0.49c11.26,1.524,22.62-0.331,33.931,2.027
	c7.239,1.509,14.901,0.266,22.322,0.977c5.552,0.539,11.159,1.724,16.483,3.535c5.763,1.956,11.545,3.529,17.504,3.953
	c4.11,0.302,7.439,1.811,10.262,5.168c0.832,0.984,2.249,1.882,3.392,1.882c4.888,0,9.086,2.285,13.389,4.384
	c2.695,1.322,5.505,2.349,8.296,3.42c1.87,0.704,3.765,1.372,5.692,1.818c2.476,0.568,5.492,0.057,7.395,1.495
	c3.832,2.903,9.019,1.804,12.303,5.822c0.084,0.099,0.358-0.022,0.513,0.036c1.87,0.747,3.719,1.544,5.603,2.241
	c2.706,1.007,5.695,4.143,8.43,5.013c1.345,0.416,2.491,2.968,3.847,3.284c2.134,0.496,4.232,1.158,6.379,1.574
	c2.58,0.497,3.713,2.755,5.375,4.921c3.299,4.296,4.231,7.784,6.772,9.503c2.832,1.917,9.587,6.033,10.649,7.178
	c4.883,5.252,13.857,12.833,17.254,9.204c1.485-1.586-2.221-10.163-1.709-14.381c0.361-2.97-0.938-8.582-1.538-11.504
	c-0.627-3.059,1.274-5.123-1.137-6.711c-1.124-0.74-0.068-2.724-0.911-3.835c-1.372-1.806-3.918-11.931-4.955-13.997
	c-1.618-3.224-2.492-5.593-6.148-10.738c-1.802-2.535-0.855-3.643-4.726-7.222c-2.401-2.22-6.688-7.915-9.473-9.481
	c-3.425-1.926-6.761-4.075-10.063-6.26c-3.844-2.544-2.714-2.285-7.734-4.836c-1.195-0.608-5.525-3.966-10.082-7.545
	c-3.696-2.904-7.038-10.336-11.377-11.751c-3.374-1.099-6.756-2.227-10.129-3.333c-4.288-1.402-8.89-6.744-12.776-9.015
	c-3.329-1.94-6.653-2.257-10.071-2.63c-6.4-0.697-12.732-1.494-18.7-4.506c-1.49-0.754-3.225-0.955-4.864-1.308
	c-5.813-1.265-11.62-2.543-17.444-3.708c-4.298-0.856-8.599-1.832-12.945-2.25c-11.114-1.099-22.246-2.027-33.392-2.803
	c-6.467-0.445-12.982-0.92-19.448-0.582c-10.525,0.561-21.031,1.64-31.523,2.789c-4.615,0.502-9.551-0.18-13.462,3.938
	c-1.204,1.264-3.15,1.617-4.693,2.494c-1.557,0.883-3.08,1.846-4.552,2.875c-2.201,1.538-4.225,3.529-6.575,4.664
	c-2.817,1.351-6.197,1.208-8.271,4.434c-0.378,0.582-1.453,0.561-2.17,0.905c-1.217,0.589-2.702,0.934-3.553,1.947
	c-1.933,2.322-3.861,4.535-6.639,5.52c-1.331,0.475-2.996,0.518-3.944,1.459c-3.194,3.19-6.254,6.576-9.115,10.133
	c-2.33,2.881-4.256,6.18-6.466,9.206c-1.536,2.083-3.508,3.822-4.827,6.051c-3.373,5.712-6.575,11.563-9.646,17.491
	c-0.884,1.717-1.103,3.875-1.563,5.85c-0.371,1.617-0.364,3.42-1.019,4.865c-1.087,2.422-2.362,4.822-3.949,6.855
	c-1.055,1.337-2.695,2.437-4.232,2.847c-1.261,0.33-2.637-0.446-2.932-2.573c-0.396-2.911-1.759-6.388,0.954-8.149
	c3.046-1.983,3.994-4.858,4.571-8.143c0.455-2.601,1.364-4.598,3.452-5.972c0.672-0.444,1.471-1.501,1.445-2.249
	c-0.121-3.363,1.153-5.634,3.113-8.207c3.59-4.678,6.351-10.168,9.646-15.155c0.98-1.473,2.714-2.293,3.943-3.601
	c2.67-2.826,4.873-6.497,7.952-8.452c3.221-2.033,5.896-4.513,8.464-7.308c1.338-1.438,3.06-3.121,1.875-5.253
	c-1.183-2.127-3.328-1.812-5.243-0.777c-0.396,0.215-0.78,0.489-1.197,0.633c-1.977,0.704-3.936,1.582-5.959,2.011
	c-3.398,0.712-6.977,1.064-9.359,4.197c-2.099,2.753-4.853,3.349-7.688,3.996c-1.121,0.259-2.35,0.188-3.369,0.683
	c-1.62,0.806-3.218,1.804-4.633,2.998c-3.117,2.63-6.012,5.62-9.225,8.077c-1.262,0.979-3.516,0.389-4.706,1.409
	c-5.199,4.449-10.186,9.206-15.217,13.885c-1.327,1.236-2.356,2.997-3.835,3.858c-6.166,3.608-11.748,7.813-14.866,15.17
	c-0.396,0.942-1.208,1.661-1.843,2.452c-2.695,3.371-5.679,6.489-7.985,10.154c-1.554,2.465-2.168,5.685-3.181,8.581
	c-0.805,2.285-1.536,4.599-2.355,6.877c-1.485,4.089-2.952,8.192-4.54,12.232c-1.868,4.743-4.16,9.277-4.417,14.674
	c-0.064,1.387-0.794,3.19-1.754,3.966c-1.953,1.582-2.72,3.536-2.733,6.043c-0.033,5.613-0.096,11.226-0.008,16.832
	c0.104,6.619,0.282,13.23,0.597,19.842c0.128,2.824-0.109,6.281,1.223,8.264c1.632,2.451,1.882,4.708,1.876,7.353
	c0,2.859-0.148,5.749,0.037,8.595c0.148,2.278,0.711,4.527,1.107,6.92c1.275-0.367,2.01-0.568,3.124-0.884
	c0.167,1.408,0.449,2.63,0.437,3.838c-0.039,3.838,1.054,6.935,4.135,8.961c0.735,0.481,1.574,1.136,1.895,1.948
	c1.799,4.477,3.584,8.962,5.063,13.568c0.345,1.1-0.16,3.09-0.916,3.901c-0.524,0.546-2.445,0.167-3.251-0.524
	c-1.433-1.236-2.65-2.889-3.688-4.57c-3.156-5.174-6.171-10.463-9.276-15.674c-1.542-2.616-3.662-4.972-4.583-7.826
	c-0.871-2.709-1.958-4.923-3.707-6.964c-1.056-1.229-1.722-2.903-2.471-4.44c-0.986-2.013-1.895-4.075-2.811-6.144
	c-1.062-2.402-2.515-4.715-3.06-7.273c-0.915-4.277-0.864-8.775-3.175-12.699c-1.031-1.746-1.44-4.025-1.895-6.122
	c-0.377-1.783-0.422-3.659-0.621-5.492l0.711-0.15c0.588,0.906,1.171,1.812,1.76,2.724c0.275-0.043,0.557-0.086,0.833-0.138
	c0-2.378,0.102-4.757-0.019-7.135c-0.18-3.342-0.608-6.669-0.737-10.019c-0.039-0.948,0.346-2.343,0.98-2.831
	c2.298-1.811,2.362-4.398,1.396-6.569c-1.511-3.37-0.749-5.921,0.876-8.781c0.903-1.582,1.588-3.672,1.53-5.505
	c-0.159-5.685-0.897-11.355-1.063-17.04c-0.09-3.119,0.512-6.065,2.957-8.451c1.87-1.804,3.912-3.946,3.349-7.502
	c-0.678-4.255,1.005-7.374,4.123-9.824c0.973-0.763,2.093-2.379,2.03-3.521c-0.199-3.538,1.439-5.72,3.507-7.848
	c0.833-0.856,2.024-1.949,2.054-2.983c0.072-2.084-0.268-4.326-0.979-6.259c-0.268-0.74-2.31-1.466-3.047-1.063
	c-2.894,1.595-6.153,3.068-8.239,5.647c-4.469,5.519-8.412,11.606-12.355,17.628c-4.647,7.123-9.052,14.438-13.604,21.639
	c-1.371,2.169-1.326,4.225,0.101,6.259c0.866,1.244,0.487,1.911-0.46,2.932c-0.833,0.884-1.383,2.306-1.658,3.592
	c-0.383,1.791-0.256,3.716-0.621,5.52c-0.577,2.81-1.466,5.527-2.068,8.344c-1.383,6.467-2.318,13.1-4.168,19.396
	c-0.761,2.617-1.619,5.023-1.747,7.833c-0.083,1.969-0.896,3.896-1.428,5.828c-0.339,1.236-0.902,2.409-1.101,3.659
	c-0.198,1.25-0.02,2.572-0.09,3.844c-0.672,12.807-1.454,25.598-1.966,38.398c-0.096,2.436,0.763,4.944,1.332,7.374
	c0.634,2.759,1.517,5.455,2.113,8.214c0.159,0.732-0.391,1.631-0.479,2.465c-0.109,1.035-0.264,2.134-0.058,3.111
	c0.486,2.329,1.19,4.593,1.767,6.9c0.519,2.061,0.934,4.159,1.466,6.215c0.269,1.034,0.844,1.982,1.012,3.033
	c1.101,6.433,2.035,12.892,3.207,19.303c0.524,2.86,1.645,5.584,2.196,8.443c1.152,5.965,2.067,11.987,3.156,17.969
	c0.659,3.627,2.273,7.098,1.185,10.986c-0.166,0.581-0.019,1.472,0.274,1.998c1.5,2.63,2.958,5.311,4.693,7.739
	c1.562,2.177,3.528,4.002,5.206,6.087c2.221,2.766,4.064,5.985,6.549,8.395c5.038,4.88,7.926,11.49,11.734,17.347
	c0.404,0.641,0.083,2.422-0.46,3.105c-0.641,0.789-2.312,1.668-2.824,1.271c-2.759-2.024-5.409-4.29-7.873-6.783
	c-1.646-1.653-2.933-3.759-4.361-5.692c-1.069-1.437-2.067-2.966-3.182-4.405c-1.842-2.372-3.552-4.772-4.237-7.956
	c-0.147-0.698-1.171-1.13-1.697-1.773c-1.19-1.476-2.38-2.954-3.45-4.534c-0.735-1.072-1.126-2.451-1.882-3.494
	c-1.511-2.077-3.399-3.86-4.725-6.072c-3.63-6.023-7.176-12.108-10.499-18.354c-1.823-3.456-3.156-7.235-4.648-10.909
	c-0.8-1.97-0.392-4.061-1.237-6.006c-0.807-1.833-1.863-3.53-2.778-5.313c-0.756-1.494-1.665-2.939-2.145-4.55
	c-0.876-2.881-1.376-5.899-2.228-8.787c-1.491-5.023-3.393-9.896-4.622-14.985c-1.177-4.837-1.676-9.866-2.567-14.789
	c-0.238-1.33-0.864-2.559-1.216-3.866c-0.575-2.134-1.454-4.276-1.53-6.447c-0.212-6.008,0.019-12.031-0.128-18.039
	c-0.057-2.342-0.551-4.692-1.037-6.985c-0.404-1.94-1.588-3.097-3.471-2.875c-1.945,0.229-2.253,1.833-2.305,3.666
	c-0.077,2.853-0.186,5.712-0.371,8.565c-0.372,5.785-0.871,11.563-1.178,17.355c-0.096,1.854,0.294,3.731,0.372,5.599
	c0.422,9.859,0.787,19.733,1.268,29.587c0.077,1.645,0.589,3.27,0.979,4.887c1.344,5.497,3.092,10.879,2.696,16.787
	c-0.179,2.71,0.3,5.52,0.735,8.229c0.429,2.702,1.568,5.311,1.678,8.005c0.134,3.255,1.575,5.434,3.161,7.854
	c1.186,1.818,2.293,4.159,2.357,6.311c0.083,2.572,0.647,4.433,2.472,5.777c1.952,1.443,2.573,3.437,2.841,5.985
	c0.244,2.271,0.903,4.706,2.003,6.604c3.458,5.893,6.276,11.55,9.842,17.364c0.928,1.508,1.818,3.255,2.151,5.05
	c0.608,3.213,2.17,5.204,4.782,6.555c2.649,1.344,4.334,3.644,5.569,6.749c1.575,3.916,3.579,7.669,5.8,11.19
	c1.536,2.428,4.232,3.967,5.583,6.466c2.951,5.447,7.618,8.941,11.28,13.554c1.779,2.229,4.174,3.881,6.363,5.68
	c3.303,2.716,6.625,5.387,10.045,7.917c3.143,2.328,6.49,4.312,9.608,6.684c0.567,0.435,1.127,0.878,1.693,1.313
	c1.483-1.725,2.916-3.414,4.364-5.051C102.673,403.594,106.943,398.634,111.341,393.835z"/>
<linearGradient id="SVGID_1_" gradientUnits="userSpaceOnUse" x1="-0.2847" y1="373.9473" x2="1519.2609" y2="373.9473">
	<stop  offset="0" style="stop-color:#F9ED32"/>
	<stop  offset="0.5376" style="stop-color:#ED1C24"/>
	<stop  offset="1" style="stop-color:#92278F"/>
</linearGradient>
<path fill-rule="evenodd" clip-rule="evenodd" fill="url(#SVGID_1_)" d="M268.455,374.113c2.508-1.178,4.948-2.528,7.305-4.068
	c-6.191,2.604-12.568,4.702-18.599,7.806C261.01,376.875,264.818,375.751,268.455,374.113z"/>
<path fill-rule="evenodd" clip-rule="evenodd" d="M93.333,414.302c1.728-1.999,3.36-3.939,5.026-5.822
	c4.314-4.886,8.584-9.846,12.982-14.645c2.036-2.215,4.539-3.909,6.486-6.208c5.524-6.556,14.038-15.036,19.455-21.678
	c0.364-0.431,0.788-0.804,1.171-1.176c4.507,3.118,8.944,6.209,13.399,9.283c3.424,2.328,6.728,5.031,10.358,6.842
	c4.736,2.386,9.827,3.852,14.621,6.065c6.587,3.075,13.578,2.412,20.428,2.947c5.02,0.416,10.136-0.721,15.212-1.164
	c2.65-0.217,5.351-0.174,7.957-0.705c5.909-1.191,11.857-2.315,17.63-4.068c6.523-2.014,12.977-4.455,19.276-7.229
	c5.76-2.544,8.148-3.952,13.707-6.999c9.512-5.262,16.419-10.528,25.023-17.564c3.483-2.862,6.602-5.678,9.789-8.96
	c2.6-2.683,5.178-5.427,7.527-8.375c3.119-3.894,5.513-8.004,8.445-12.109c2.99-4.159,5.813-8.495,8.858-12.61
	c2.954-3.975,5.692-7.934,7.133-13.072c1.396-4.988,3.956-9.559,5.435-14.532c1.159-3.908,1.71-8.113,2.095-12.239
	c0.537-5.834,0.333-11.662-0.774-17.471c-1.255-6.617-3.215-12.898-7.216-18.008c-3.481-4.441-8.215-6.532-13.354-7.919
	c-5.807-1.566-11.343-0.208-16.762,1.416c-11.568,3.464-19.895,7.237-31.297,11.311c-10.71,3.832-21.242,8.272-31.881,12.333
	c-5.532,2.111-11.185,3.809-16.69,5.979c-8.124,3.205-16.498,5.067-24.928,6.797c-7.113,1.467-14.264,2.531-21.434,1.813
	c-6.16-0.611-11.992-2.595-16.806-7.625c-4.289-4.477-6.926-9.766-8.497-16.005c-4.121-16.405-2.246-32.424,1.992-48.4
	c3.304-12.446,8.495-23.896,15.269-34.265c4.494-6.864,9.666-13.316,15.28-19.036c6.351-6.461,13.324-12.232,20.404-17.694
	c11.684-8.998,24.385-15.89,37.784-21.035c9.736-3.737,19.473-7.66,29.461-10.305c8.509-2.257,17.367-2.781,26.076-4.133
	c3.396-0.517,6.815-1.933,10.157-1.689c11.544,0.833,22.522,2.81,34.04,3.997c1.203,0.128,2.919,1.509,4.621,1.745
	c-3.271,8.473-6.356,17.65-9.437,25.613c-4.264-1.803-8.271-3.975-12.489-5.174c-5.37-1.531-10.953-2.084-16.377-3.42
	c-6.029-1.488-11.676,1.178-17.516,1.523c-13.583,0.834-25.651,6.396-38.226,11.067c-7.033,2.608-13.154,5.921-19.978,9.263
	c-3.233,1.581-6.685,2.796-9.635,4.895c-5.609,3.967-11.14,7.566-16.319,12.21c-4.271,3.83-7.682,7.617-11.369,12.167
	c-4.092,5.045-4.699,8.725-8.292,17.779c-0.435,1.085-0.639,2.313-1.172,3.327c-1.454,6.605-2.759,9.335-2.533,14.194
	c0.165,3.42-0.398,7.459,2.215,9.852c2.995,2.739,5.851,5.195,9.415,6.799c5.417,2.443,11.154,2.026,16.8,0.38
	c1.268-0.366,2.625-0.402,3.924-0.697c10.038-2.185,19.672-5.749,29.193-9.968c6.248-2.775,12.862-4.542,19.301-6.776
	c6.433-2.228,12.867-4.434,19.276-6.721c15.632-5.569,31.42-9.421,48.037-8.472c11.345,0.646,21.108,4.844,29.271,13.395
	c7.688,8.042,12.246,18.347,15.103,29.602c1.69,6.661,3.424,13.316,4.737,20.071c0.877,4.535,0.961,9.249,1.554,13.854
	c1.371,10.639-0.32,21.159-1.182,31.657c-0.476,5.722-2.409,11.298-3.791,16.91c-0.635,2.573-1.396,5.14-2.344,7.595
	c-2.505,6.454-4.865,13.003-7.771,19.21c-3.137,6.72-6.511,13.345-10.364,19.564c-3.188,5.137-7.018,9.823-10.927,14.292
	c-5.904,6.756-12.087,13.208-18.221,19.732c-3.228,3.422-6.442,6.871-9.955,9.892c-4.673,3.995-9.582,7.646-14.482,11.297
	c-4.608,3.433-9.217,6.897-14.019,9.987c-5.333,3.435-10.889,6.396-16.331,9.615c-2.183,1.267-4.303,2.703-6.518,3.94
	c-1.567,0.858-3.291,1.351-4.892,2.152c-1.759,0.894-3.411,2.042-5.198,2.818c-3.424,1.553-7.067,2.545-10.332,4.428
	c-3.131,1.783-6.773,1.983-9.636,3.651c-4.428,2.544-9.32,2.786-13.738,4.974c-1.222,0.588-2.707,0.499-4.071,0.716
	c-1.043,0.158-2.381-0.113-3.067,0.519c-2.394,2.17-5.261,1.222-7.842,1.94c-2.689,0.763-5.5,0.43-8.015,1.05
	c-2.759,0.633-5.428,0.721-8.156,0.89c-0.512,0.031-1.312,0.058-1.459,0.374c-1.408,3.104-3.943,2.015-6.113,2.157
	c-18.08,1.077-35.095-4.082-51.535-11.699c-5.679-2.646-10.742-6.985-16.01-10.664c-8.694-6.125-17.336-12.348-25.992-18.529
	C94.038,415.134,93.813,414.819,93.333,414.302z"/>
</svg>
