<?xml version="1.0" encoding="utf-8"?>
<!-- Generator: Adobe Illustrator 16.0.0, SVG Export Plug-In . SVG Version: 6.00 Build 0)  -->
<!DOCTYPE svg PUBLIC "-//W3C//DTD SVG 1.1//EN" "http://www.w3.org/Graphics/SVG/1.1/DTD/svg11.dtd">
<svg version="1.1" id="Layer_3" xmlns="http://www.w3.org/2000/svg" xmlns:xlink="http://www.w3.org/1999/xlink" x="0px" y="0px"
	 width="250.459px" height="475.46px" viewBox="0 0 250.459 475.46" enable-background="new 0 0 250.459 475.46"
	 xml:space="preserve">
<path fill-rule="evenodd" clip-rule="evenodd" d="M250.459,80v87.46h0.271V80c0-17.97-14.541-32.68-32.422-32.99
	C236.071,47.46,250.459,62.12,250.459,80z"/>
<path d="M70.5,25v22H33c-0.19,0-0.39,0-0.58,0.01C14.54,47.32,0,62.03,0,80v362.46c0,18.149,14.85,33,33,33h184.459
	c18.15,0,33-14.851,33-33V80c0-17.88-14.389-32.54-32.15-32.99C218.03,47,217.741,47,217.459,47H180.27V25c0-13.75-11.25-25-25-25
	H95.5C81.75,0,70.5,11.25,70.5,25z M227.459,167.46v275c0,5.42-4.58,10-10,10H33c-5.42,0-10-4.58-10-10v-275H227.459z M134.42,75.46
	v26.08H160.5v17.84H134.42v26.08h-17.84v-26.08H90.5v-17.84h26.08V75.46H134.42z"/>
<path fill-rule="evenodd" clip-rule="evenodd" d="M116.216,296.993c17.696,0,34.21-0.075,50.722,0.037
	c8.219,0.05,14.055,5.298,15.207,13.4c0.74,5.11-1.498,9.213-4.691,12.983c-14.035,16.584-28.029,33.193-42.027,49.795
	c-10.126,11.994-20.238,23.999-30.362,35.99c-4.423,5.239-10.034,7.033-16.589,5.193c-6.043-1.699-10.076-6.916-10.604-13.254
	c-0.385-4.585,1.291-8.424,4.237-11.908c16.122-19.031,32.177-38.115,48.262-57.18c1.066-1.289,2.129-2.592,3.881-4.717
	c-2.033,0-3.313,0-4.594,0c-14.708,0-29.429-0.086-44.143,0.036c-7.102,0.062-12.622-2.396-15.709-9.003
	c-3.04-6.511-1.201-12.158,3.25-17.42c23.894-28.242,47.745-56.519,71.533-84.846c3.848-4.57,8.344-7.567,14.469-6.919
	c5.877,0.621,10.268,3.685,12.529,9.242c2.367,5.838,1.338,11.272-2.709,16.083c-10.639,12.656-21.314,25.283-31.974,37.92
	C130.241,280.333,123.598,288.234,116.216,296.993z"/>
</svg>
